<svg width="512" height="512" viewBox="0 0 512 512" xmlns="http://www.w3.org/2000/svg">
  <rect width="512" height="512" rx="100" fill="#0f0a1a"/>
  <circle cx="256" cy="256" r="28" fill="none" stroke="#fbbf24" stroke-width="2"/>
  <circle cx="256" cy="256" r="12" fill="#fbbf24"/>
  <circle cx="256" cy="256" r="50" fill="none" stroke="#f59e0b" stroke-width="1" opacity="0.5" stroke-dasharray="3 3"/>
  <path d="M256 180 Q 256 120 180 140 Q 200 160 256 180" fill="none" stroke="#f59e0b" stroke-width="1.5" opacity="0.5"/>
  <path d="M256 180 Q 256 120 332 140 Q 312 160 256 180" fill="none" stroke="#f59e0b" stroke-width="1.5" opacity="0.5"/>
  <path d="M256 332 Q 256 392 180 372 Q 200 352 256 332" fill="none" stroke="#f59e0b" stroke-width="1.5" opacity="0.5"/>
  <path d="M256 332 Q 256 392 332 372 Q 312 352 256 332" fill="none" stroke="#f59e0b" stroke-width="1.5" opacity="0.5"/>
  <path d="M180 256 Q 120 256 140 180 Q 160 200 180 256" fill="none" stroke="#f59e0b" stroke-width="1.5" opacity="0.5"/>
  <path d="M332 256 Q 392 256 372 180 Q 352 200 332 256" fill="none" stroke="#f59e0b" stroke-width="1.5" opacity="0.5"/>
  <polygon points="256,160 352,256 256,352 160,256" fill="none" stroke="#fbbf24" stroke-width="0.6" opacity="0.2" transform="rotate(15,256,256)"/>
  <circle cx="256" cy="256" r="110" fill="none" stroke="#d97706" stroke-width="0.5" opacity="0.15"/>
  <circle cx="256" cy="256" r="150" fill="none" stroke="#fbbf24" stroke-width="0.4" opacity="0.08"/>
  <circle cx="160" cy="170" r="1.5" fill="#fcd34d" opacity="0.5"/>
  <circle cx="352" cy="170" r="1.5" fill="#fcd34d" opacity="0.5"/>
  <circle cx="256" cy="400" r="1" fill="#fcd34d" opacity="0.3"/>
  <text x="256" y="455" text-anchor="middle" fill="#d97706" font-size="22" font-weight="500" font-family="sans-serif" opacity="0.5">曦和</text>
  <text x="256" y="478" text-anchor="middle" fill="#92400e" font-size="12" font-weight="400" font-family="sans-serif" opacity="0.35">cognitive lifeform</text>
</svg>