<svg width="512" height="512" viewBox="0 0 512 512" xmlns="http://www.w3.org/2000/svg">
  <defs>
    <linearGradient id="bgB" x1="0" y1="0" x2="1" y2="1">
      <stop offset="0%" stop-color="#ffffff"/>
      <stop offset="50%" stop-color="#fff5f5"/>
      <stop offset="100%" stop-color="#fef2f2"/>
    </linearGradient>
    <linearGradient id="fairyB" x1="0" y1="0" x2="1" y2="1">
      <stop offset="0%" stop-color="#f59e0b"/>
      <stop offset="30%" stop-color="#fbbf24"/>
      <stop offset="60%" stop-color="#fcd34d"/>
      <stop offset="100%" stop-color="#fde68a"/>
    </linearGradient>
    <linearGradient id="ribbonB" x1="0" y1="0" x2="1" y2="1">
      <stop offset="0%" stop-color="#fb923c"/>
      <stop offset="100%" stop-color="#f472b6"/>
    </linearGradient>
  </defs>
  <rect width="512" height="512" rx="106" fill="url(#bgB)" stroke="#fecaca" stroke-width="0.5"/>
  <!-- 背景柔光 -->
  <circle cx="256" cy="260" r="180" fill="#fffbeb" opacity="0.5"/>
  <!-- 螺旋流光 - 仙女飘带的抽象表达 -->
  <path d="M 140 190 C 100 220, 80 280, 120 320 C 160 360, 240 350, 300 320 C 360 290, 420 250, 400 200 C 380 150, 320 160, 280 190 C 240 220, 230 260, 256 280" fill="none" stroke="url(#ribbonB)" stroke-width="1.5" opacity="0.15"/>
  <path d="M 150 200 C 120 230, 100 270, 130 300 C 160 330, 230 330, 280 310 C 330 290, 390 260, 380 220 C 370 180, 320 180, 290 200 C 260 220, 250 250, 256 270" fill="none" stroke="url(#fairyB)" stroke-width="1" opacity="0.12"/>
  <!-- 翅膀抽象 - 扇形光晕 -->
  <path d="M 256 230 Q 200 170, 130 180 Q 170 200, 200 220 Q 160 215, 110 230 Q 150 240, 190 245 Q 220 248, 256 250" fill="url(#fairyB)" opacity="0.06"/>
  <path d="M 256 230 Q 312 170, 382 180 Q 342 200, 312 220 Q 352 215, 402 230 Q 362 240, 322 245 Q 292 248, 256 250" fill="url(#fairyB)" opacity="0.06"/>
  <!-- 核心 · 发光圆盘 -->
  <circle cx="256" cy="256" r="36" fill="#fef3c7" opacity="0.4"/>
  <circle cx="256" cy="256" r="24" fill="none" stroke="url(#fairyB)" stroke-width="2.5"/>
  <circle cx="256" cy="256" r="12" fill="url(#fairyB)" opacity="0.95"/>
  <circle cx="252" cy="250" r="3" fill="#ffffff" opacity="0.5"/>
  <!-- 飞舞光点 -->
  <circle cx="100" cy="150" r="2.5" fill="#fb923c" opacity="0.2"/>
  <circle cx="412" cy="150" r="2.5" fill="#fb923c" opacity="0.2"/>
  <circle cx="100" cy="360" r="2" fill="#f472b6" opacity="0.15"/>
  <circle cx="412" cy="360" r="2" fill="#f472b6" opacity="0.15"/>
  <circle cx="160" cy="120" r="1.5" fill="#fcd34d" opacity="0.2"/>
  <circle cx="352" cy="120" r="1.5" fill="#fcd34d" opacity="0.2"/>
  <circle cx="180" cy="400" r="1.5" fill="#fcd34d" opacity="0.15"/>
  <circle cx="332" cy="400" r="1.5" fill="#fcd34d" opacity="0.15"/>
</svg>