<svg width="512" height="512" viewBox="0 0 512 512" xmlns="http://www.w3.org/2000/svg">
  <defs>
    <linearGradient id="bgA" x1="0" y1="0" x2="1" y2="1">
      <stop offset="0%" stop-color="#1a0a2e"/>
      <stop offset="50%" stop-color="#2d1b69"/>
      <stop offset="100%" stop-color="#1a0a2e"/>
    </linearGradient>
    <linearGradient id="goldA" x1="0.2" y1="0" x2="0.8" y2="1">
      <stop offset="0%" stop-color="#f59e0b"/>
      <stop offset="50%" stop-color="#fbbf24"/>
      <stop offset="100%" stop-color="#fcd34d"/>
    </linearGradient>
    <linearGradient id="ringA" x1="0" y1="0" x2="1" y2="1">
      <stop offset="0%" stop-color="#7c3aed"/>
      <stop offset="100%" stop-color="#f59e0b"/>
    </linearGradient>
  </defs>
  <rect width="512" height="512" rx="106" fill="url(#bgA)"/>
  <circle cx="256" cy="256" r="180" fill="none" stroke="#7c3aed" stroke-width="0.5" opacity="0.12"/>
  <circle cx="256" cy="256" r="160" fill="none" stroke="#7c3aed" stroke-width="0.3" opacity="0.08"/>
  <circle cx="256" cy="256" r="80" fill="none" stroke="url(#ringA)" stroke-width="1.5" opacity="0.3"/>
  <polygon points="256,140 370,256 256,372 140,256" fill="none" stroke="url(#goldA)" stroke-width="2" opacity="0.4"/>
  <polygon points="256,160 348,256 256,352 164,256" fill="none" stroke="#fbbf24" stroke-width="1.2" opacity="0.25"/>
  <polygon points="256,180 326,256 256,332 186,256" fill="none" stroke="#f59e0b" stroke-width="0.8" opacity="0.15"/>
  <circle cx="256" cy="256" r="40" fill="none" stroke="#fcd34d" stroke-width="1" opacity="0.3"/>
  <circle cx="256" cy="256" r="22" fill="none" stroke="#fbbf24" stroke-width="2.5"/>
  <circle cx="256" cy="256" r="8" fill="#fbbf24" opacity="0.9"/>
  <circle cx="120" cy="120" r="2" fill="#a78bfa" opacity="0.4"/>
  <circle cx="392" cy="120" r="2" fill="#a78bfa" opacity="0.4"/>
  <circle cx="120" cy="392" r="2" fill="#a78bfa" opacity="0.4"/>
  <circle cx="392" cy="392" r="2" fill="#a78bfa" opacity="0.4"/>
</svg>