<svg width="512" height="512" viewBox="0 0 512 512" xmlns="http://www.w3.org/2000/svg">
  <defs>
    <linearGradient id="bgB" x1="0" y1="0" x2="0" y2="1">
      <stop offset="0%" stop-color="#fffaf0"/>
      <stop offset="100%" stop-color="#fefce8"/>
    </linearGradient>
    <linearGradient id="wingB" x1="0.2" y1="0" x2="0.8" y2="1">
      <stop offset="0%" stop-color="#f59e0b"/>
      <stop offset="50%" stop-color="#fbbf24"/>
      <stop offset="100%" stop-color="#fcd34d"/>
    </linearGradient>
    <linearGradient id="glowB" x1="0.5" y1="0" x2="0.5" y2="1">
      <stop offset="0%" stop-color="#fef9c3" stop-opacity="0.8"/>
      <stop offset="100%" stop-color="#fef9c3" stop-opacity="0"/>
    </linearGradient>
  </defs>
  <rect width="512" height="512" rx="96" fill="url(#bgB)" stroke="#fde68a" stroke-width="0.5"/>
  <!-- 光晕 -->
  <ellipse cx="256" cy="280" rx="180" ry="100" fill="url(#glowB)"/>
  <!-- 左翼 -->
  <path d="M 256 256 Q 210 180, 130 160 Q 160 190, 180 210 Q 140 200, 80 210 Q 120 230, 160 240 Q 200 250, 256 256" fill="url(#wingB)" opacity="0.08"/>
  <path d="M 256 256 Q 220 200, 150 185 Q 175 205, 195 220 Q 165 215, 120 225 Q 150 238, 180 245 Q 220 252, 256 256" fill="none" stroke="url(#wingB)" stroke-width="1.5" opacity="0.2"/>
  <!-- 右翼 -->
  <path d="M 256 256 Q 302 180, 382 160 Q 352 190, 332 210 Q 372 200, 432 210 Q 392 230, 352 240 Q 312 250, 256 256" fill="url(#wingB)" opacity="0.08"/>
  <path d="M 256 256 Q 292 200, 362 185 Q 337 205, 317 220 Q 347 215, 392 225 Q 362 238, 332 245 Q 292 252, 256 256" fill="none" stroke="url(#wingB)" stroke-width="1.5" opacity="0.2"/>
  <!-- 核心 -->
  <circle cx="256" cy="256" r="40" fill="#fef3c7" opacity="0.5"/>
  <circle cx="256" cy="256" r="22" fill="none" stroke="url(#wingB)" stroke-width="2.5"/>
  <circle cx="256" cy="256" r="12" fill="url(#wingB)" opacity="0.95"/>
  <!-- 散落光点 -->
  <circle cx="120" cy="180" r="1.5" fill="#f59e0b" opacity="0.3"/>
  <circle cx="392" cy="180" r="1.5" fill="#f59e0b" opacity="0.3"/>
</svg>